<?xml version="1.0" encoding="utf-8"?>
<svg version="1.1" xmlns:xlink="http://www.w3.org/1999/xlink" width="721px" height="360px" xmlns="http://www.w3.org/2000/svg">
  <g transform="matrix(1 0 0 1 -146 -1454 )">
    <path d="M 506.5 1454  C 708.38 1454  867 1533.2  867 1634  C 867 1734.8  708.38 1814  506.5 1814  C 304.62 1814  146 1734.8  146 1634  C 146 1533.2  304.62 1454  506.5 1454  Z " fill-rule="nonzero" fill="#ffffff" stroke="none" />
    <path d="M 506.5 1454.5  C 708.1 1454.5  866.5 1533.48  866.5 1634  C 866.5 1734.52  708.1 1813.5  506.5 1813.5  C 304.9 1813.5  146.5 1734.52  146.5 1634  C 146.5 1533.48  304.9 1454.5  506.5 1454.5  Z " stroke-width="1" stroke="#797979" fill="none" />
  </g>
</svg>