<?xml version="1.0" encoding="utf-8"?>
<svg version="1.1" xmlns:xlink="http://www.w3.org/1999/xlink" width="24px" height="26px" xmlns="http://www.w3.org/2000/svg">
  <g transform="matrix(1 0 0 1 -991 -102 )">
    <path d="M 8.57386363636364 9.90234375  C 8.67613636363636 10.00390625  8.72727272727273 10.1336805555556  8.72727272727273 10.2916666666667  L 8.72727272727273 20.0416666666667  C 8.72727272727273 20.1996527777778  8.67613636363636 20.3294270833333  8.57386363636364 20.4309895833333  C 8.47159090909091 20.5325520833333  8.34090909090909 20.5833333333333  8.18181818181818 20.5833333333333  L 7.09090909090909 20.5833333333333  C 6.93181818181818 20.5833333333333  6.80113636363637 20.5325520833333  6.69886363636364 20.4309895833333  C 6.59659090909091 20.3294270833333  6.54545454545454 20.1996527777778  6.54545454545454 20.0416666666667  L 6.54545454545454 10.2916666666667  C 6.54545454545454 10.1336805555556  6.59659090909091 10.00390625  6.69886363636364 9.90234375  C 6.80113636363637 9.80078125  6.93181818181818 9.75  7.09090909090909 9.75  L 8.18181818181818 9.75  C 8.34090909090909 9.75  8.47159090909091 9.80078125  8.57386363636364 9.90234375  Z M 12.9375 9.90234375  C 13.0397727272727 10.00390625  13.0909090909091 10.1336805555556  13.0909090909091 10.2916666666667  L 13.0909090909091 20.0416666666667  C 13.0909090909091 20.1996527777778  13.0397727272727 20.3294270833333  12.9375 20.4309895833333  C 12.8352272727273 20.5325520833333  12.7045454545455 20.5833333333333  12.5454545454545 20.5833333333333  L 11.4545454545455 20.5833333333333  C 11.2954545454545 20.5833333333333  11.1647727272727 20.5325520833333  11.0625 20.4309895833333  C 10.9602272727273 20.3294270833333  10.9090909090909 20.1996527777778  10.9090909090909 20.0416666666667  L 10.9090909090909 10.2916666666667  C 10.9090909090909 10.1336805555556  10.9602272727273 10.00390625  11.0625 9.90234375  C 11.1647727272727 9.80078125  11.2954545454545 9.75  11.4545454545455 9.75  L 12.5454545454545 9.75  C 12.7045454545455 9.75  12.8352272727273 9.80078125  12.9375 9.90234375  Z M 17.3011363636364 9.90234375  C 17.4034090909091 10.00390625  17.4545454545455 10.1336805555556  17.4545454545455 10.2916666666667  L 17.4545454545455 20.0416666666667  C 17.4545454545455 20.1996527777778  17.4034090909091 20.3294270833333  17.3011363636364 20.4309895833333  C 17.1988636363636 20.5325520833333  17.0681818181818 20.5833333333333  16.9090909090909 20.5833333333333  L 15.8181818181818 20.5833333333333  C 15.6590909090909 20.5833333333333  15.5284090909091 20.5325520833333  15.4261363636364 20.4309895833333  C 15.3238636363636 20.3294270833333  15.2727272727273 20.1996527777778  15.2727272727273 20.0416666666667  L 15.2727272727273 10.2916666666667  C 15.2727272727273 10.1336805555556  15.3238636363636 10.00390625  15.4261363636364 9.90234375  C 15.5284090909091 9.80078125  15.6590909090909 9.75  15.8181818181818 9.75  L 16.9090909090909 9.75  C 17.0681818181818 9.75  17.1988636363636 9.80078125  17.3011363636364 9.90234375  Z M 19.5170454545455 23.232421875  C 19.5965909090909 23.0236545138889  19.6363636363636 22.7951388888889  19.6363636363636 22.546875  L 19.6363636363636 7  L 4.36363636363636 7  L 4.36363636363636 22.546875  C 4.36363636363636 22.7951388888889  4.40340909090909 23.0236545138889  4.48295454545455 23.232421875  C 4.5625 23.4411892361111  4.64488636363636 23.5935329861111  4.73011363636364 23.689453125  C 4.81534090909091 23.7853732638889  4.875 23.8333333333333  4.90909090909091 23.8333333333333  L 19.0909090909091 23.8333333333333  C 19.125 23.8333333333333  19.1846590909091 23.7853732638889  19.2698863636364 23.689453125  C 19.3551136363636 23.5935329861111  19.4375 23.4411892361111  19.5170454545455 23.232421875  Z M 9.01704545454546 2.35286458333333  L 8.18181818181818 4.33333333333333  L 15.8181818181818 4.33333333333333  L 15 2.35286458333333  C 14.9204545454545 2.25130208333333  14.8238636363636 2.18923611111111  14.7102272727273 2.16666666666667  L 9.30681818181818 2.16666666666667  C 9.19318181818182 2.18923611111111  9.09659090909091 2.25130208333333  9.01704545454546 2.35286458333333  Z M 23.8465909090909 4.48567708333333  C 23.9488636363636 4.58723958333333  24 4.71701388888889  24 4.875  L 24 5.95833333333333  C 24 6.11631944444444  23.9488636363636 6.24609375  23.8465909090909 6.34765625  C 23.7443181818182 6.44921875  23.6136363636364 6.5  23.4545454545455 6.5  L 21.8181818181818 6.5  L 21.8181818181818 22.546875  C 21.8181818181818 23.4835069444444  21.5511363636364 24.2931857638889  21.0170454545455 24.9759114583333  C 20.4829545454545 25.6586371527778  19.8409090909091 26  19.0909090909091 26  L 4.90909090909091 26  C 4.15909090909091 26  3.51704545454546 25.669921875  2.98295454545455 25.009765625  C 2.44886363636364 24.349609375  2.18181818181818 23.5512152777778  2.18181818181818 22.6145833333333  L 2.18181818181818 6.5  L 0.545454545454545 6.5  C 0.386363636363636 6.5  0.255681818181818 6.44921875  0.153409090909091 6.34765625  C 0.0511363636363636 6.24609375  0 6.11631944444444  0 5.95833333333333  L 0 4.875  C 0 4.71701388888889  0.0511363636363636 4.58723958333333  0.153409090909091 4.48567708333333  C 0.255681818181818 4.38411458333333  0.386363636363636 4.33333333333333  0.545454545454545 4.33333333333333  L 5.8125 4.33333333333333  L 7.00568181818182 1.50651041666667  C 7.17613636363637 1.08897569444444  7.48295454545455 0.733506944444442  7.92613636363636 0.440104166666668  C 8.36931818181818 0.146701388888887  8.81818181818182 0  9.27272727272727 0  L 14.7272727272727 0  C 15.1818181818182 0  15.6306818181818 0.146701388888887  16.0738636363636 0.440104166666668  C 16.5170454545455 0.733506944444442  16.8238636363636 1.08897569444444  16.9943181818182 1.50651041666667  L 18.1875 4.33333333333333  L 23.4545454545455 4.33333333333333  C 23.6136363636364 4.33333333333333  23.7443181818182 4.38411458333333  23.8465909090909 4.48567708333333  Z " fill-rule="nonzero" fill="#000000" stroke="none" transform="matrix(1 0 0 1 991 102 )" />
  </g>
</svg>