<?xml version="1.0" encoding="utf-8"?>
<svg version="1.1" xmlns:xlink="http://www.w3.org/1999/xlink" width="28px" height="28px" xmlns="http://www.w3.org/2000/svg">
  <g transform="matrix(1 0 0 1 -557 -4 )">
    <path d="M 571 4  C 578.84 4  585 10.16  585 18  C 585 25.84  578.84 32  571 32  C 563.16 32  557 25.84  557 18  C 557 10.16  563.16 4  571 4  Z " fill-rule="nonzero" fill="#ffffff" stroke="none" />
    <path d="M 571 4.5  C 578.56 4.5  584.5 10.44  584.5 18  C 584.5 25.56  578.56 31.5  571 31.5  C 563.44 31.5  557.5 25.56  557.5 18  C 557.5 10.44  563.44 4.5  571 4.5  Z " stroke-width="1" stroke="#797979" fill="none" />
  </g>
</svg>