<?xml version="1.0" encoding="utf-8"?>
<svg version="1.1" xmlns:xlink="http://www.w3.org/1999/xlink" width="18px" height="15px" xmlns="http://www.w3.org/2000/svg">
  <g transform="matrix(1 0 0 1 -113 -6 )">
    <path d="M 14.0524553571429 8.837890625  C 14.1127232142857 8.896484375  14.1428571428571 8.97135416666666  14.1428571428571 9.0625  L 14.1428571428571 12.1875  C 14.1428571428571 12.9622395833333  13.8599330357143 13.6246744791667  13.2940848214286 14.1748046875  C 12.7282366071429 14.7249348958333  12.046875 15  11.25 15  L 2.89285714285714 15  C 2.09598214285714 15  1.41462053571429 14.7249348958333  0.848772321428571 14.1748046875  C 0.282924107142857 13.6246744791667  0 12.9622395833333  0 12.1875  L 0 4.0625  C 0 3.28776041666667  0.282924107142857 2.62532552083333  0.848772321428571 2.0751953125  C 1.41462053571429 1.52506510416666  2.09598214285714 1.25  2.89285714285714 1.25  L 9.96428571428572 1.25  C 10.0580357142857 1.25  10.1350446428571 1.279296875  10.1953125 1.337890625  C 10.2555803571429 1.396484375  10.2857142857143 1.47135416666667  10.2857142857143 1.5625  L 10.2857142857143 2.1875  C 10.2857142857143 2.27864583333333  10.2555803571429 2.353515625  10.1953125 2.412109375  C 10.1350446428571 2.470703125  10.0580357142857 2.5  9.96428571428572 2.5  L 2.89285714285714 2.5  C 2.45089285714286 2.5  2.07254464285714 2.65299479166666  1.7578125 2.958984375  C 1.44308035714286 3.26497395833333  1.28571428571429 3.6328125  1.28571428571429 4.0625  L 1.28571428571429 12.1875  C 1.28571428571429 12.6171875  1.44308035714286 12.9850260416667  1.7578125 13.291015625  C 2.07254464285714 13.5970052083333  2.45089285714286 13.75  2.89285714285714 13.75  L 11.25 13.75  C 11.6919642857143 13.75  12.0703125 13.5970052083333  12.3850446428571 13.291015625  C 12.6997767857143 12.9850260416667  12.8571428571429 12.6171875  12.8571428571429 12.1875  L 12.8571428571429 9.0625  C 12.8571428571429 8.97135416666666  12.8872767857143 8.896484375  12.9475446428571 8.837890625  C 13.0078125 8.779296875  13.0848214285714 8.75  13.1785714285714 8.75  L 13.8214285714286 8.75  C 13.9151785714286 8.75  13.9921875 8.779296875  14.0524553571429 8.837890625  Z M 17.8091517857143 0.185546874999999  C 17.9363839285714 0.309244791666665  18 0.455729166666665  18 0.624999999999999  L 18 5.625  C 18 5.79427083333333  17.9363839285714 5.94075520833333  17.8091517857143 6.064453125  C 17.6819196428571 6.18815104166667  17.53125 6.25  17.3571428571429 6.25  C 17.1830357142857 6.25  17.0323660714286 6.18815104166667  16.9051339285714 6.064453125  L 15.1372767857143 4.345703125  L 8.58816964285714 10.712890625  C 8.52120535714286 10.7779947916667  8.44419642857143 10.810546875  8.35714285714286 10.810546875  C 8.27008928571429 10.810546875  8.19308035714286 10.7779947916667  8.12611607142857 10.712890625  L 6.98102678571429 9.599609375  C 6.9140625 9.53450520833333  6.88058035714286 9.45963541666667  6.88058035714286 9.375  C 6.88058035714286 9.29036458333333  6.9140625 9.21549479166667  6.98102678571429 9.150390625  L 13.5301339285714 2.783203125  L 11.7622767857143 1.064453125  C 11.6350446428571 0.940755208333333  11.5714285714286 0.794270833333333  11.5714285714286 0.624999999999999  C 11.5714285714286 0.455729166666665  11.6350446428571 0.309244791666665  11.7622767857143 0.185546874999999  C 11.8895089285714 0.0618489583333343  12.0401785714286 0  12.2142857142857 0  L 17.3571428571429 0  C 17.53125 0  17.6819196428571 0.0618489583333343  17.8091517857143 0.185546874999999  Z " fill-rule="nonzero" fill="#000000" stroke="none" transform="matrix(1 0 0 1 113 6 )" />
  </g>
</svg>