<?xml version="1.0" encoding="utf-8"?>
<svg version="1.1" xmlns:xlink="http://www.w3.org/1999/xlink" width="37px" height="37px" xmlns="http://www.w3.org/2000/svg">
  <g transform="matrix(1 0 0 1 -1465 -138 )">
    <path d="M 1483.5 138  C 1493.86 138  1502 146.14  1502 156.5  C 1502 166.86  1493.86 175  1483.5 175  C 1473.14 175  1465 166.86  1465 156.5  C 1465 146.14  1473.14 138  1483.5 138  Z " fill-rule="nonzero" fill="#ffffff" stroke="none" />
    <path d="M 1483.5 138.5  C 1493.58 138.5  1501.5 146.42  1501.5 156.5  C 1501.5 166.58  1493.58 174.5  1483.5 174.5  C 1473.42 174.5  1465.5 166.58  1465.5 156.5  C 1465.5 146.42  1473.42 138.5  1483.5 138.5  Z " stroke-width="1" stroke="#797979" fill="none" />
  </g>
</svg>