<?xml version="1.0" encoding="utf-8"?>
<svg version="1.1" xmlns:xlink="http://www.w3.org/1999/xlink" width="60px" height="80px" xmlns="http://www.w3.org/2000/svg">
  <g transform="matrix(1 0 0 1 -871 -374 )">
    <path d="M 930.5 386  C 930.5 386  930.5 442  930.5 442  C 930.5 448.608  917.1 453.5  901 453.5  C 884.9 453.5  871.5 448.608  871.5 442  C 871.5 442  871.5 386  871.5 386  C 871.5 379.392  884.9 374.5  901 374.5  C 917.1 374.5  930.5 379.392  930.5 386  Z " fill-rule="nonzero" fill="#ffffff" stroke="none" />
    <path d="M 871.5 386.35  C 871.5 379.714  884.48 374.5  901 374.5  C 917.52 374.5  930.5 379.714  930.5 386.35  C 930.5 386.35  930.5 441.65  930.5 441.65  C 930.5 448.286  917.52 453.5  901 453.5  C 884.48 453.5  871.5 448.286  871.5 441.65  C 871.5 441.65  871.5 386.35  871.5 386.35  Z " stroke-width="1" stroke="#797979" fill="none" />
    <path d="M 930.5 386  C 930.5 392.44  917.52 397.5  901 397.5  C 884.48 397.5  871.5 392.44  871.5 386  " stroke-width="1" stroke="#797979" fill="none" />
  </g>
</svg>