<?xml version="1.0" encoding="utf-8"?>
<svg version="1.1" xmlns:xlink="http://www.w3.org/1999/xlink" width="100px" height="60px" xmlns="http://www.w3.org/2000/svg">
  <g transform="matrix(1 0 0 1 -945 -764 )">
    <path d="M 955.5 823.5  L 1044.5 823.5  L 1044.5 774.5  L 1039.5 774.5  L 1039.5 769.5  L 1034.5 769.5  L 1034.5 764.5  L 945.5 764.5  L 945.5 813.5  L 950.5 813.5  L 950.5 818.5  L 955.5 818.5  L 955.5 823.5  Z " fill-rule="nonzero" fill="#ffffff" stroke="none" />
    <path d="M 955.5 823.5  L 1044.5 823.5  L 1044.5 774.5  L 1039.5 774.5  L 1039.5 769.5  L 1034.5 769.5  L 1034.5 764.5  L 945.5 764.5  L 945.5 813.5  L 950.5 813.5  L 950.5 818.5  L 955.5 818.5  L 955.5 823.5  Z " stroke-width="1" stroke="#797979" fill="none" />
    <path d="M 1039.5 775  L 1039.5 818.5  L 956 818.5  M 1034.5 770  L 1034.5 813.5  L 951 813.5  " stroke-width="1" stroke="#797979" fill="none" />
  </g>
</svg>