<?xml version="1.0" encoding="utf-8"?>
<svg version="1.1" xmlns:xlink="http://www.w3.org/1999/xlink" width="23px" height="23px" xmlns="http://www.w3.org/2000/svg">
  <g transform="matrix(1 0 0 1 -779 -1589 )">
    <path d="M 15.8873697916667 10.7213541666667  C 16.1569010416667 10.9110243055556  16.2916666666667 11.1705729166667  16.2916666666667 11.5  C 16.2916666666667 11.8294270833333  16.1569010416667 12.0889756944444  15.8873697916667 12.2786458333333  L 9.17903645833333 17.0703125  C 8.86957465277778 17.2999131944444  8.54014756944444 17.3248697916667  8.19075520833333 17.1451822916667  C 7.84136284722222 16.9754774305556  7.66666666666667 16.6909722222222  7.66666666666667 16.2916666666667  L 7.66666666666667 6.70833333333333  C 7.66666666666667 6.30902777777778  7.84136284722222 6.02452256944444  8.19075520833333 5.85481770833333  C 8.54014756944444 5.67513020833333  8.86957465277778 5.70008680555555  9.17903645833333 5.9296875  L 15.8873697916667 10.7213541666667  Z M 19.0319010416667 19.0319010416667  C 19.1217447916667 18.9420572916667  19.1666666666667 18.8272569444444  19 18.6875  L 19 4.3125  C 19.1666666666667 4.17274305555555  19.1217447916667 4.05794270833333  19.0319010416667 3.96809895833333  C 18.9420572916667 3.87825520833333  18.8272569444444 3.83333333333333  18.6875 4  L 4.3125 4  C 4.17274305555556 3.83333333333333  4.05794270833333 3.87825520833333  3.96809895833333 3.96809895833333  C 3.87825520833333 4.05794270833333  3.83333333333333 4.17274305555555  4 4.3125  L 4 18.6875  C 3.83333333333333 18.8272569444444  3.87825520833333 18.9420572916667  3.96809895833333 19.0319010416667  C 4.05794270833333 19.1217447916667  4.17274305555556 19.1666666666667  4.3125 19  L 18.6875 19  C 18.8272569444444 19.1666666666667  18.9420572916667 19.1217447916667  19.0319010416667 19.0319010416667  Z M 21.7347005208333 1.26529947916667  C 22.5782335069444 2.10883246527778  23 3.12456597222222  23 4.3125  L 23 18.6875  C 23 19.8754340277778  22.5782335069444 20.8911675347222  21.7347005208333 21.7347005208333  C 20.8911675347222 22.5782335069444  19.8754340277778 23  18.6875 23  L 4.3125 23  C 3.12456597222222 23  2.10883246527778 22.5782335069444  1.26529947916667 21.7347005208333  C 0.421766493055555 20.8911675347222  0 19.8754340277778  0 18.6875  L 0 4.3125  C 0 3.12456597222222  0.421766493055555 2.10883246527778  1.26529947916667 1.26529947916667  C 2.10883246527778 0.421766493055554  3.12456597222222 0  4.3125 0  L 18.6875 0  C 19.8754340277778 0  20.8911675347222 0.421766493055554  21.7347005208333 1.26529947916667  Z " fill-rule="nonzero" fill="#000000" stroke="none" transform="matrix(1 0 0 1 779 1589 )" />
  </g>
</svg>