<?xml version="1.0" encoding="utf-8"?>
<svg version="1.1" xmlns:xlink="http://www.w3.org/1999/xlink" width="23px" height="23px" xmlns="http://www.w3.org/2000/svg">
  <g transform="matrix(1 0 0 1 -779 -1622 )">
    <path d="M 15.048828125 6.03450520833333  C 15.2384982638889 6.22417534722222  15.3333333333333 6.44878472222222  15.3333333333333 6.70833333333333  L 15.3333333333333 16.2916666666667  C 15.3333333333333 16.5512152777778  15.2384982638889 16.7758246527778  15.048828125 16.9654947916667  C 14.8591579861111 17.1551649305556  14.6345486111111 17.25  14.375 17.25  C 14.1753472222222 17.25  13.9906684027778 17.1901041666667  13.8209635416667 17.0703125  L 7.11263020833333 12.2786458333333  C 6.84309895833333 12.0889756944444  6.70833333333333 11.8294270833333  6.70833333333333 11.5  C 6.70833333333333 11.1705729166667  6.84309895833333 10.9110243055556  7.11263020833333 10.7213541666667  L 13.8209635416667 5.9296875  C 13.9906684027778 5.80989583333333  14.1753472222222 5.75  14.375 5.75  C 14.6345486111111 5.75  14.8591579861111 5.84483506944444  15.048828125 6.03450520833333  Z M 19.0244140625 19.0244140625  C 19.1192491319444 18.9295789930556  19.1666666666667 18.8172743055556  19 18.6875  L 19 4.3125  C 19.1666666666667 4.18272569444444  19.1192491319444 4.07042100694444  19.0244140625 3.9755859375  C 18.9295789930556 3.88075086805555  18.8172743055556 3.83333333333333  18.6875 4  L 4.3125 4  C 4.18272569444445 3.83333333333333  4.07042100694445 3.88075086805555  3.9755859375 3.9755859375  C 3.88075086805556 4.07042100694444  3.83333333333333 4.18272569444444  4 4.3125  L 4 18.6875  C 3.83333333333333 18.8172743055556  3.88075086805556 18.9295789930556  3.9755859375 19.0244140625  C 4.07042100694445 19.1192491319444  4.18272569444445 19.1666666666667  4.3125 19  L 18.6875 19  C 18.8172743055556 19.1666666666667  18.9295789930556 19.1192491319444  19.0244140625 19.0244140625  Z M 21.7347005208333 1.26529947916667  C 22.5782335069444 2.10883246527778  23 3.12456597222222  23 4.3125  L 23 18.6875  C 23 19.8754340277778  22.5782335069444 20.8911675347222  21.7347005208333 21.7347005208333  C 20.8911675347222 22.5782335069444  19.8754340277778 23  18.6875 23  L 4.3125 23  C 3.12456597222222 23  2.10883246527778 22.5782335069444  1.26529947916667 21.7347005208333  C 0.421766493055555 20.8911675347222  0 19.8754340277778  0 18.6875  L 0 4.3125  C 0 3.12456597222222  0.421766493055555 2.10883246527778  1.26529947916667 1.26529947916667  C 2.10883246527778 0.421766493055554  3.12456597222222 0  4.3125 0  L 18.6875 0  C 19.8754340277778 0  20.8911675347222 0.421766493055554  21.7347005208333 1.26529947916667  Z " fill-rule="nonzero" fill="#000000" stroke="none" transform="matrix(1 0 0 1 779 1622 )" />
  </g>
</svg>